<svg xmlns="http://www.w3.org/2000/svg" version="1.1" xmlns:xlink="http://www.w3.org/1999/xlink" width="1500" height="383" viewBox="0 0 1500 383"><svg xml:space="preserve" width="1500" height="383" data-version="2" data-id="lg_JFllWSmzmyQfneHGPX" viewBox="0 0 559 383" x="0" y="0"><rect width="100%" height="100%" fill="transparent"></rect><g transform="translate(30.48 263.33)"><linearGradient id="a" x1="-.01" x2="8.64" y1="0" y2="0" gradientUnits="objectBoundingBox"><stop offset="0%" stop-color="#ff6cab"></stop><stop offset="100%" stop-color="#7366ff"></stop></linearGradient><path fill="url(#a)" d="M140.99 448.86q0 1.3-.54 1.8-.55.5-1.85.5h-9.26q-1.3 0-1.84-.5-.55-.5-.55-1.8v-48.37q0-4.34.81-6.89.8-2.54 3.13-3.65 2.32-1.1 6.8-1.1h11.51q22.69 0 22.69 17.42 0 5.3-1.78 8.69-1.79 3.39-4.44 5.28-2.65 1.89-5.21 2.85v.22q2.91 1.91 5.54 5.02 2.63 3.1 4.76 6.73 2.13 3.63 3.6 7.17 1.48 3.54 2.05 6.33.26 1.3.02 1.95-.24.65-1.5.65h-10.04q-1.13 0-1.98-.48-.84-.47-1.54-2.21-3.3-8.3-7.6-13.54-4.31-5.23-8.3-8.41-2.57-2.04-2.57-2.91 0-.69.83-1.91.52-.74 1.52-1.78 1-1.05 1.74-1.57t1.19-.65q.46-.13 1.41-.13 3.22 0 5.37-2.22 2.15-2.21 2.15-6.99 0-4.52-2.28-6.63-2.28-2.11-6.28-2.11h-2.61q-2.86 0-3.91 1.22-1.04 1.22-1.04 4.17Z" transform="translate(-151.78 -420)"></path></g><rect width="49.66" height="62.31" x="-24.83" y="-31.16" fill="none" rx="0" ry="0" transform="translate(30.98 263.83)"></rect><g transform="translate(83.46 263.33)"><linearGradient id="b" x1="-1.2" x2="9.31" y1="0" y2="0" gradientUnits="objectBoundingBox"><stop offset="0%" stop-color="#ff6cab"></stop><stop offset="100%" stop-color="#7366ff"></stop></linearGradient><path fill="url(#b)" d="M195.75 451.16q-4.48 0-6.81-1.13-2.32-1.13-3.12-3.69-.81-2.56-.81-6.82v-39.03q0-4.34.81-6.89.8-2.54 3.12-3.65 2.33-1.1 6.81-1.1h20.42q1.04 0 1.56.34 1.13.79 2.35 1.87 1.22 1.09 2.57 2.61.43.56.43.91 0 .39-.43.87-1.35 1.52-2.57 2.61-1.22 1.08-2.35 1.87-.6.34-1.56.34H204q-2.87 0-3.91 1.22t-1.04 4.17v8.43h15.6q1.04 0 1.56.35 1.13.78 2.35 1.87 1.22 1.09 2.56 2.61.44.56.44.91 0 .39-.44.87-1.34 1.52-2.56 2.61-1.22 1.08-2.35 1.87-.6.34-1.56.34h-15.6v8.78q0 2.91 1.04 4.17 1.04 1.26 3.91 1.26h13.6q1.05 0 1.57.35 1.13.78 2.35 1.87 1.21 1.09 2.56 2.61.43.56.43.91 0 .39-.43.87-1.35 1.52-2.56 2.61-1.22 1.08-2.35 1.87-.61.34-1.57.34Z" transform="translate(-204.76 -420)"></path></g><rect width="39.5" height="62.31" x="-19.75" y="-31.16" fill="none" rx="0" ry="0" transform="translate(83.96 263.83)"></rect><g transform="translate(130.91 263.37)"><linearGradient id="c" x1="-2.1" x2="7.86" y1="0" y2="0" gradientUnits="objectBoundingBox"><stop offset="0%" stop-color="#ff6cab"></stop><stop offset="100%" stop-color="#7366ff"></stop></linearGradient><path fill="url(#c)" d="M250.5 452.21q-5.52 0-9.15-1-3.62-1-5.82-2.5-2.19-1.5-3.37-2.98-.39-.56-.69-1.09-.31-.52-.44-1.17-.17-.87-.34-2.28-.18-1.41-.05-3.28.05-.78.31-1.09.3-.35 1-.52 1.26-.3 3.28-.54 2.02-.24 2.89-.24.91 0 1.47.35.57.34 1.35 1.17.87.91 3 2.32 2.13 1.42 6.56 1.42 4.26 0 6.43-1.78 2.18-1.79 2.18-4.96 0-1.69-1.03-3.19-1.02-1.5-3.71-3-2.7-1.5-7.69-3.15-8.26-2.78-11.91-6.91-3.65-4.13-3.65-11.47 0-6.09 2.95-10.17 2.96-4.09 8.17-6.17 5.22-2.09 12.04-2.09 5.26 0 8.72 1.24 3.45 1.24 5.36 2.78 1.91 1.54 2.48 2.5.35.56.46.85.1.28.15.76.13 1.34.08 2.99-.04 1.66-.3 3.74-.13.7-.48.96-.3.22-.95.22-4.22.08-6.52-.44-.91-.22-1.22-.43-.3-.22-.78-.7-.7-.82-2.2-1.93-1.5-1.11-4.8-1.11-4.56 0-6.47 2.06-1.91 2.07-1.91 4.63 0 3.04 2.82 4.76 2.82 1.72 8.91 3.89 5.08 1.78 8.73 3.87 3.65 2.08 5.59 5.34 1.93 3.26 1.93 8.61 0 6.65-3.06 11.03-3.07 4.39-8.35 6.54-5.28 2.16-11.97 2.16" transform="translate(-252.21 -420.05)"></path></g><rect width="43.33" height="64.32" x="-21.67" y="-32.16" fill="none" rx="0" ry="0" transform="translate(131.41 263.87)"></rect><g transform="translate(170.46 262.56)"><linearGradient id="d" x1="-5.67" x2="13.38" y1="0" y2="0" gradientUnits="objectBoundingBox"><stop offset="0%" stop-color="#ff6cab"></stop><stop offset="100%" stop-color="#7366ff"></stop></linearGradient><path fill="url(#d)" d="M298.78 448.86q0 1.3-.54 1.8t-1.85.5h-9.25q-1.31 0-1.85-.5t-.54-1.8V395.8q0-1.26.43-1.91 1.96-2.87 5.48-6.04.65-.53 1.13-.53.52 0 1.08.53 1.91 1.65 3.22 3.15 1.3 1.5 2.26 2.89.43.69.43 1.91Z" transform="translate(-291.76 -419.24)"></path></g><rect width="14.03" height="63.84" x="-7.01" y="-31.92" fill="none" rx="0" ry="0" transform="translate(170.96 263.06)"></rect><g transform="translate(219.03 263.33)"><linearGradient id="e" x1="-2.82" x2="4.65" y1="0" y2="0" gradientUnits="objectBoundingBox"><stop offset="0%" stop-color="#ff6cab"></stop><stop offset="100%" stop-color="#7366ff"></stop></linearGradient><path fill="url(#e)" d="M323.42 451.16q-4.47 0-6.8-1.13-2.32-1.13-3.13-3.69-.8-2.56-.8-6.82v-39.03q0-4.34.8-6.89.81-2.54 3.13-3.65 2.33-1.1 6.8-1.1h13.34q9.35 0 16.37 2.78 7.01 2.78 10.92 9.41 3.92 6.62 3.92 18.18 0 11.56-3.92 18.58-3.91 7.02-10.92 10.19-7.02 3.17-16.37 3.17Zm8.26-50.89q-2.87 0-3.91 1.22t-1.04 4.17v28.69q0 2.91 1.04 4.17 1.04 1.26 3.91 1.26h2q9.3 0 14.4-4.57 5.11-4.56 5.11-15.81 0-7.52-2.32-11.67-2.33-4.15-6.72-5.8-4.39-1.66-10.56-1.66Z" transform="translate(-340.33 -420)"></path></g><rect width="55.28" height="62.31" x="-27.64" y="-31.16" fill="none" rx="0" ry="0" transform="translate(219.53 263.83)"></rect><g transform="translate(277.28 263.33)"><linearGradient id="f" x1="-5.19" x2="5.33" y1="0" y2="0" gradientUnits="objectBoundingBox"><stop offset="0%" stop-color="#ff6cab"></stop><stop offset="100%" stop-color="#7366ff"></stop></linearGradient><path fill="url(#f)" d="M389.56 451.16q-4.47 0-6.8-1.13-2.32-1.13-3.13-3.69-.8-2.56-.8-6.82v-39.03q0-4.34.8-6.89.81-2.54 3.13-3.65 2.33-1.1 6.8-1.1h20.43q1.04 0 1.56.34 1.13.79 2.35 1.87 1.22 1.09 2.56 2.61.44.56.44.91 0 .39-.44.87-1.34 1.52-2.56 2.61-1.22 1.08-2.35 1.87-.61.34-1.56.34h-12.17q-2.87 0-3.91 1.22t-1.04 4.17v8.43h15.6q1.04 0 1.56.35 1.13.78 2.35 1.87 1.22 1.09 2.56 2.61.44.56.44.91 0 .39-.44.87-1.34 1.52-2.56 2.61-1.22 1.08-2.35 1.87-.61.34-1.56.34h-15.6v8.78q0 2.91 1.04 4.17 1.04 1.26 3.91 1.26h13.6q1.05 0 1.57.35 1.13.78 2.34 1.87 1.22 1.09 2.57 2.61.43.56.43.91 0 .39-.43.87-1.35 1.52-2.57 2.61-1.21 1.08-2.34 1.87-.61.34-1.57.34Z" transform="translate(-398.58 -420)"></path></g><rect width="39.5" height="62.31" x="-19.75" y="-31.16" fill="none" rx="0" ry="0" transform="translate(277.78 263.83)"></rect><g transform="translate(334.19 262.56)"><linearGradient id="g" x1="-4.3" x2="2.7" y1="0" y2="0" gradientUnits="objectBoundingBox"><stop offset="0%" stop-color="#ff6cab"></stop><stop offset="100%" stop-color="#7366ff"></stop></linearGradient><path fill="url(#g)" d="M440.71 448.86q0 1.3-.5 1.8t-1.76.5h-8.73q-1.22 0-1.74-.5t-.52-1.8V393.8q0-2.56 1-3.76 1-1.19 3.52-1.19h4.04q2.22 0 4.19.58 1.98.59 4.22 2.63 2.24 2.04 5.21 6.32 2.98 4.28 7.2 11.67 4.04 7.04 6.49 11.26 2.46 4.21 3.8 6.43 1.35 2.22 2.03 3.17.67.96 1.1 1.57V395.8q0-1.26.39-1.91 1.87-2.87 5.18-6.04.65-.53 1.08-.53.48 0 1.05.53 1.78 1.65 3.02 3.15 1.23 1.5 2.15 2.89.39.69.39 1.91v51.76q0 1.95-.74 2.78-.74.82-2.7.82h-4.17q-1.87 0-3.82-.63-1.96-.63-4.43-2.87-2.48-2.23-5.87-6.97t-8.17-12.95q-4.04-7-6.45-11.13-2.42-4.12-3.68-6.23-1.26-2.11-1.82-2.96-.57-.84-.96-1.28Z" transform="translate(-455.49 -419.24)"></path></g><rect width="56.06" height="63.84" x="-28.03" y="-31.92" fill="none" rx="0" ry="0" transform="translate(334.69 263.06)"></rect><g transform="translate(396.07 263.33)"><linearGradient id="h" x1="-6.89" x2="2.51" y1="0" y2="0" gradientUnits="objectBoundingBox"><stop offset="0%" stop-color="#ff6cab"></stop><stop offset="100%" stop-color="#7366ff"></stop></linearGradient><path fill="url(#h)" d="M524.37 448.86q0 1.3-.55 1.8-.54.5-1.84.5h-9.26q-1.3 0-1.85-.5-.54-.5-.54-1.8v-48.59h-12.95q-1.04 0-1.56-.34-1.13-.79-2.33-1.87-1.19-1.09-2.58-2.61-.44-.56-.44-.91 0-.39.44-.87 1.39-1.52 2.58-2.61 1.2-1.08 2.33-1.87.6-.34 1.56-.34h39.98q1.04 0 1.57.34 1.13.79 2.34 1.87 1.22 1.09 2.57 2.61.43.56.43.91 0 .39-.43.87-1.35 1.52-2.57 2.61-1.21 1.08-2.34 1.87-.61.34-1.57.34h-12.99Z" transform="translate(-517.37 -420)"></path></g><rect width="53.8" height="62.31" x="-26.9" y="-31.16" fill="none" rx="0" ry="0" transform="translate(396.57 263.83)"></rect><g transform="translate(449.67 263.33)"><linearGradient id="i" x1="-8.73" x2="1.78" y1="0" y2="0" gradientUnits="objectBoundingBox"><stop offset="0%" stop-color="#ff6cab"></stop><stop offset="100%" stop-color="#7366ff"></stop></linearGradient><path fill="url(#i)" d="M561.96 451.16q-4.48 0-6.8-1.13-2.33-1.13-3.13-3.69-.81-2.56-.81-6.82v-39.03q0-4.34.81-6.89.8-2.54 3.13-3.65 2.32-1.1 6.8-1.1h20.42q1.05 0 1.57.34 1.13.79 2.34 1.87 1.22 1.09 2.57 2.61.43.56.43.91 0 .39-.43.87-1.35 1.52-2.57 2.61-1.21 1.08-2.34 1.87-.61.34-1.57.34h-12.17q-2.86 0-3.91 1.22-1.04 1.22-1.04 4.17v8.43h15.6q1.04 0 1.57.35 1.13.78 2.34 1.87 1.22 1.09 2.57 2.61.43.56.43.91 0 .39-.43.87-1.35 1.52-2.57 2.61-1.21 1.08-2.34 1.87-.61.34-1.57.34h-15.6v8.78q0 2.91 1.04 4.17 1.05 1.26 3.91 1.26h13.61q1.04 0 1.56.35 1.13.78 2.35 1.87 1.21 1.09 2.56 2.61.44.56.44.91 0 .39-.44.87-1.35 1.52-2.56 2.61-1.22 1.08-2.35 1.87-.61.34-1.56.34Z" transform="translate(-570.98 -420)"></path></g><rect width="39.51" height="62.31" x="-19.75" y="-31.16" fill="none" rx="0" ry="0" transform="translate(450.17 263.83)"></rect><g transform="translate(25.4 345.8)"><linearGradient id="j" x1="-.01" x2="10.51" y1="-1" y2="-1" gradientUnits="objectBoundingBox"><stop offset="0%" stop-color="#ff6cab"></stop><stop offset="100%" stop-color="#7366ff"></stop></linearGradient><path fill="url(#j)" d="M137.69 533.63q-4.48 0-6.8-1.13-2.33-1.13-3.13-3.69-.81-2.57-.81-6.83v-39.02q0-4.35.81-6.89.8-2.54 3.13-3.65 2.32-1.11 6.8-1.11h20.42q1.04 0 1.57.35 1.13.78 2.34 1.87 1.22 1.09 2.57 2.61.43.56.43.91 0 .39-.43.87-1.35 1.52-2.57 2.61-1.21 1.08-2.34 1.86-.61.35-1.57.35h-12.17q-2.86 0-3.91 1.22-1.04 1.22-1.04 4.17v8.43h15.6q1.04 0 1.57.35 1.13.78 2.34 1.87 1.22 1.08 2.57 2.61.43.56.43.91 0 .39-.43.87-1.35 1.52-2.57 2.6-1.21 1.09-2.34 1.87-.61.35-1.57.35h-15.6v8.78q0 2.91 1.04 4.17 1.05 1.26 3.91 1.26h13.61q1.04 0 1.56.35 1.13.78 2.35 1.87 1.21 1.08 2.56 2.6.44.57.44.92 0 .39-.44.87-1.35 1.52-2.56 2.6-1.22 1.09-2.35 1.87-.61.35-1.56.35Z" transform="translate(-146.7 -502.47)"></path></g><rect width="39.51" height="62.32" x="-19.75" y="-31.16" fill="none" rx="0" ry="0" transform="translate(25.9 346.3)"></rect><g transform="translate(89.33 345.8)"><linearGradient id="k" x1="-.58" x2="5.08" y1="-1" y2="-1" gradientUnits="objectBoundingBox"><stop offset="0%" stop-color="#ff6cab"></stop><stop offset="100%" stop-color="#7366ff"></stop></linearGradient><path fill="url(#k)" d="M210.87 508.69q.61-2.35 1.32-4.63.72-2.28 1.76-5.11.92-2.52 2.22-5.8 1.3-3.28 2.76-6.67 1.46-3.39 2.85-6.3 1.39-2.91 2.52-4.65 1.39-2.13 3.02-3.17 1.63-1.05 4.8-1.05h5.69q2.26 0 3.8.68 1.55.67 2.2 3.19.48 1.87.91 5.48.44 3.6.74 9.99.3 6.39.48 16.41.17 10.01.17 24.75 0 .78-.52 1.3t-1.26.52h-9.91q-.74 0-1.26-.52t-.52-1.35v-19.47q0-7.99-.04-13.25-.05-5.26-.11-8.37-.07-3.1-.2-4.8h-.26q-2.3 5.3-4.91 11.8-2.61 6.5-5.08 13.38-2.48 6.89-4.44 13.45-.56 1.96-1.41 2.72-.85.76-3.84.76h-5q-2.57 0-3.41-.65-.85-.65-1.46-2.83-1.43-4.95-3.17-10.47-1.74-5.52-3.59-10.84-1.84-5.32-3.56-9.82t-3.06-7.5h-.26q-.35 5.13-.61 12.47-.26 7.35-.42 15.95-.15 8.61-.19 17.56 0 .78-.52 1.28t-1.26.5h-8.91q-.74 0-1.26-.52t-.52-1.35q.04-23.16.93-36.98.89-13.82 1.94-18.51.69-3.09 2.45-4.02 1.76-.94 4.02-.94h7.04q2.39 0 3.5.85 1.11.85 2.71 3.28.96 1.44 2.29 4.3 1.32 2.87 2.76 6.37 1.43 3.5 2.71 6.91t2.11 5.93q.87 2.57 1.61 4.98.74 2.41 1.3 4.76Z" transform="translate(-210.63 -502.47)"></path></g><rect width="70.96" height="62.32" x="-35.48" y="-31.16" fill="none" rx="0" ry="0" transform="translate(89.83 346.3)"></rect><g transform="translate(161.68 345.8)"><linearGradient id="l" x1="-2.33" x2="6.46" y1="-1" y2="-1" gradientUnits="objectBoundingBox"><stop offset="0%" stop-color="#ff6cab"></stop><stop offset="100%" stop-color="#7366ff"></stop></linearGradient><path fill="url(#l)" d="M270.32 533.63q-4.48 0-6.8-1.13-2.33-1.13-3.13-3.69-.81-2.57-.81-6.83v-39.02q0-4.35.81-6.89.8-2.54 3.13-3.65 2.32-1.11 6.8-1.11h11.95q10.43 0 16.03 3.83 5.61 3.82 5.61 10.77 0 3.44-1.56 6.26-1.57 2.83-4.11 4.83t-5.54 2.99v.18q3.82.52 6.91 2.5 3.08 1.97 4.93 5.13 1.85 3.15 1.85 7.23 0 6.08-2.94 10.23-2.93 4.16-8.08 6.26-5.15 2.11-11.84 2.11Zm3.3-15.77q0 2.91 1.04 4.17 1.05 1.26 3.91 1.26h3.31q4.39 0 7.06-2.26t2.67-6.17q0-3.74-2.61-5.87-2.6-2.13-6.73-2.13h.04q-1.04 0-1.56-.3-1.13-.74-2.33-1.72-1.19-.98-2.58-2.37-.44-.56-.44-.82 0-.35.44-.83 1.39-1.39 2.58-2.39 1.2-1 2.33-1.69.61-.31 1.56-.31h-.04q2.56 0 4.71-1.91t2.15-6q0-4.13-2.3-5.5-2.3-1.36-5.91-1.36h-2.35q-2.86 0-3.91 1.21-1.04 1.22-1.04 4.17Z" transform="translate(-282.99 -502.47)"></path></g><rect width="46.81" height="62.32" x="-23.41" y="-31.16" fill="none" rx="0" ry="0" transform="translate(162.18 346.3)"></rect><g transform="translate(219.67 345.8)"><linearGradient id="m" x1="-3.06" x2="4.94" y1="-1" y2="-1" gradientUnits="objectBoundingBox"><stop offset="0%" stop-color="#ff6cab"></stop><stop offset="100%" stop-color="#7366ff"></stop></linearGradient><path fill="url(#m)" d="M350.37 474.75q2.39 3.34 4.88 8.62 2.5 5.28 4.85 11.58 2.35 6.3 4.24 12.89 1.89 6.58 3.1 12.67 1.22 6.08 1.39 10.82.05 2.3-2.08 2.3h-10.52q-2.04 0-2.13-2.04-.17-4.87-1.56-11.82h-23.73q-1.22 6.78-1.39 11.82-.09 2.04-2.22 2.04h-10.3q-.78 0-1.3-.46-.52-.45-.48-1.58.22-4.83 1.42-10.98 1.19-6.14 3.1-12.75 1.91-6.61 4.26-12.93 2.35-6.32 4.87-11.58t4.91-8.6q1.26-1.79 2.67-2.61 1.41-.83 3.5-.83h6.26q2.13 0 3.56.83 1.44.82 2.7 2.61m-9.83 10.3q-2.86 4.56-5.25 10.9-2.39 6.35-4.13 13.04h18.86q-1.83-6.69-4.22-13.04-2.39-6.34-4.99-10.9Z" transform="translate(-340.97 -502.47)"></path></g><rect width="55.74" height="62.32" x="-27.87" y="-31.16" fill="none" rx="0" ry="0" transform="translate(220.17 346.3)"></rect><g transform="translate(282.57 345.8)"><linearGradient id="n" x1="-4.38" x2="4.33" y1="-1" y2="-1" gradientUnits="objectBoundingBox"><stop offset="0%" stop-color="#ff6cab"></stop><stop offset="100%" stop-color="#7366ff"></stop></linearGradient><path fill="url(#n)" d="M393.08 531.33q0 1.3-.54 1.8t-1.85.5h-9.25q-1.31 0-1.85-.5t-.54-1.8v-48.37q0-4.35.8-6.89.81-2.54 3.13-3.65 2.33-1.11 6.8-1.11h11.52q22.68 0 22.68 17.43 0 5.3-1.78 8.69-1.78 3.39-4.43 5.28-2.65 1.89-5.22 2.85v.21q2.91 1.92 5.54 5.02 2.63 3.11 4.76 6.74 2.13 3.63 3.61 7.17t2.04 6.32q.26 1.31.02 1.96-.24.65-1.5.65h-10.03q-1.13 0-1.98-.48-.85-.48-1.54-2.21-3.31-8.3-7.61-13.54-4.3-5.24-8.3-8.41-2.56-2.04-2.56-2.91 0-.7.82-1.91.52-.74 1.52-1.79 1-1.04 1.74-1.56t1.2-.65q.45-.13 1.41-.13 3.21 0 5.37-2.22 2.15-2.21 2.15-6.99 0-4.52-2.28-6.63-2.29-2.11-6.28-2.11h-2.61q-2.87 0-3.91 1.22-1.05 1.21-1.05 4.17Z" transform="translate(-403.87 -502.47)"></path></g><rect width="49.65" height="62.32" x="-24.82" y="-31.16" fill="none" rx="0" ry="0" transform="translate(283.07 346.3)"></rect><g transform="translate(337.57 345.8)"><linearGradient id="o" x1="-5.44" x2="3.38" y1="-1" y2="-1" gradientUnits="objectBoundingBox"><stop offset="0%" stop-color="#ff6cab"></stop><stop offset="100%" stop-color="#7366ff"></stop></linearGradient><path fill="url(#o)" d="M462.83 522.98q3.17 0 4.98-.65 1.8-.65 2.8-1.61 1-.95 1.74-1.91.69-.87 1.15-1.3.46-.44 1.28-.61.7-.22 2.24-.28 1.54-.07 3.09-.07 1.54 0 2.15.09.91.04 1.26.35.35.3.43 1.3.13 1.39.15 3.3.03 1.91-.06 3.31-.04.43-.15.73-.11.31-.46.92-.43.69-1.69 2.02-1.26 1.32-3.7 2.74-2.43 1.41-6.28 2.41-3.84 1-9.45 1-6 0-11.21-1.55-5.22-1.54-9.15-5.19-3.93-3.65-6.13-9.86-2.19-6.22-2.19-15.52 0-10.34 3.58-17.58 3.59-7.23 10.2-11.01 6.6-3.78 15.64-3.78 6.34 0 10.19 1.3 3.85 1.3 5.85 3.06 1.99 1.76 2.82 3.07.3.48.43.85.14.36.18 1.15.13 1.04.06 3.04-.06 2-.32 3.52-.18.95-.57 1.26-.17.17-.61.3-.43.13-1.3.13-1.39 0-3.13-.11-1.74-.1-2.61-.23-1.04-.18-1.52-.5-.47-.33-.95-1.03-.78-1.12-2.7-2.6-1.91-1.48-6.3-1.48-6.17 0-10.17 4.76t-4 15.4q0 10.61 4.2 15.74 4.19 5.12 10.23 5.12" transform="translate(-458.87 -502.48)"></path></g><rect width="50.49" height="64.49" x="-25.24" y="-32.24" fill="none" rx="0" ry="0" transform="translate(338.07 346.3)"></rect><g transform="translate(396.55 345.8)"><linearGradient id="p" x1="-5.9" x2="2.1" y1="-1" y2="-1" gradientUnits="objectBoundingBox"><stop offset="0%" stop-color="#ff6cab"></stop><stop offset="100%" stop-color="#7366ff"></stop></linearGradient><path fill="url(#p)" d="M527.24 474.75q2.39 3.34 4.88 8.62 2.5 5.28 4.85 11.58 2.35 6.3 4.24 12.89 1.89 6.58 3.1 12.67 1.22 6.08 1.4 10.82.04 2.3-2.09 2.3H533.1q-2.04 0-2.13-2.04-.17-4.87-1.56-11.82h-23.73q-1.22 6.78-1.39 11.82-.09 2.04-2.22 2.04h-10.3q-.78 0-1.3-.46-.52-.45-.48-1.58.22-4.83 1.42-10.98 1.19-6.14 3.1-12.75 1.91-6.61 4.26-12.93 2.35-6.32 4.87-11.58t4.91-8.6q1.26-1.79 2.67-2.61 1.41-.83 3.5-.83h6.26q2.13 0 3.56.83 1.44.82 2.7 2.61m-9.83 10.3q-2.86 4.56-5.25 10.9-2.39 6.35-4.13 13.04h18.86q-1.83-6.69-4.22-13.04-2.39-6.34-4.99-10.9Z" transform="translate(-517.85 -502.47)"></path></g><rect width="55.74" height="62.32" x="-27.87" y="-31.16" fill="none" rx="0" ry="0" transform="translate(397.05 346.3)"></rect><g transform="translate(462.25 345.8)"><linearGradient id="q" x1="-6.54" x2=".99" y1="-1" y2="-1" gradientUnits="objectBoundingBox"><stop offset="0%" stop-color="#ff6cab"></stop><stop offset="100%" stop-color="#7366ff"></stop></linearGradient><path fill="url(#q)" d="M566.65 533.63q-4.47 0-6.8-1.13-2.32-1.13-3.13-3.69-.8-2.57-.8-6.83v-39.02q0-4.35.8-6.89.81-2.54 3.13-3.65 2.33-1.11 6.8-1.11h13.34q9.35 0 16.36 2.78 7.02 2.79 10.93 9.41 3.91 6.63 3.91 18.19 0 11.56-3.91 18.58-3.91 7.02-10.93 10.19-7.01 3.17-16.36 3.17Zm8.26-50.89q-2.87 0-3.91 1.22-1.05 1.22-1.05 4.17v28.68q0 2.91 1.05 4.17 1.04 1.26 3.91 1.26h2q9.3 0 14.4-4.56 5.11-4.56 5.11-15.82 0-7.51-2.33-11.66-2.32-4.16-6.71-5.81-4.39-1.65-10.56-1.65Z" transform="translate(-583.55 -502.47)"></path></g><rect width="55.27" height="62.32" x="-27.64" y="-31.16" fill="none" rx="0" ry="0" transform="translate(462.75 346.3)"></rect><g transform="translate(524.48 345.8)"><linearGradient id="r" x1="-7.96" x2=".04" y1="-1" y2="-1" gradientUnits="objectBoundingBox"><stop offset="0%" stop-color="#ff6cab"></stop><stop offset="100%" stop-color="#7366ff"></stop></linearGradient><path fill="url(#r)" d="M655.17 474.75q2.39 3.34 4.89 8.62 2.5 5.28 4.85 11.58 2.34 6.3 4.23 12.89 1.9 6.58 3.11 12.67 1.22 6.08 1.39 10.82.05 2.3-2.08 2.3h-10.52q-2.04 0-2.13-2.04-.17-4.87-1.56-11.82h-23.73q-1.22 6.78-1.39 11.82-.09 2.04-2.22 2.04h-10.3q-.78 0-1.3-.46-.52-.45-.48-1.58.22-4.83 1.41-10.98 1.2-6.14 3.11-12.75t4.26-12.93q2.35-6.32 4.87-11.58t4.91-8.6q1.26-1.79 2.67-2.61 1.41-.83 3.5-.83h6.26q2.12 0 3.56.83 1.43.82 2.69 2.61m-9.82 10.3q-2.87 4.56-5.26 10.9-2.39 6.35-4.12 13.04h18.86q-1.83-6.69-4.22-13.04-2.39-6.34-5-10.9Z" transform="translate(-645.78 -502.47)"></path></g><rect width="55.74" height="62.32" x="-27.87" y="-31.16" fill="none" rx="0" ry="0" transform="translate(524.98 346.3)"></rect><path fill="#ff6cab" d="M350.92 42.586v-.08c0-.069-.007-.137-.01-.205l-.008-.195-.024-.234c-.007-.068-.013-.139-.023-.205a3.992 3.992 0 0 0-.037-.22c-.014-.07-.024-.143-.04-.213a3.543 3.543 0 0 0-.048-.206l-.054-.219a7.59 7.59 0 0 0-.06-.197c-.024-.074-.046-.146-.071-.218l-.07-.187a4.185 4.185 0 0 0-.088-.217l-.08-.177a7.227 7.227 0 0 0-.101-.215l-.09-.17c-.04-.07-.076-.14-.12-.208a2.415 2.415 0 0 0-.099-.162l-.13-.203c-.035-.052-.074-.103-.111-.154l-.145-.195-.12-.148a7.118 7.118 0 0 0-.157-.185l-.13-.14a7.041 7.041 0 0 0-.168-.174l-.14-.133a7.067 7.067 0 0 0-.18-.162l-.152-.124a7.032 7.032 0 0 0-.35-.264 4.458 4.458 0 0 0-.202-.136l-.17-.105-.124-.079-.088-.046-.07-.041-21.438-11.634a.612.612 0 0 0-.05-.027L290.505 4.834a6.62 6.62 0 0 0-6.61.021l-17.232 9.992a4.505 4.505 0 0 0-.213.117l-35.23 20.145c-.078.041-.156.082-.232.127L195.75 55.389l-.224.121-35.22 20.14a6.63 6.63 0 0 0-3.597 5.879l-.057 31.873a6.624 6.624 0 0 0 3.384 5.79l21.282 11.947v19.315a6.624 6.624 0 0 0 13.248 0v-11.88l22.626 12.7a6.624 6.624 0 0 0 6.96-.292l13.913-7.975v40.439a6.624 6.624 0 0 0 13.248 0v-48.037l7.88-4.516c.455-.26.87-.57 1.24-.918l.49-.279v40.868a6.624 6.624 0 0 0 13.248 0v-48.448l9.61-5.497v40.636a6.625 6.625 0 0 0 13.25 0v-48.328l9.61-5.577v40.903a6.626 6.626 0 1 0 13.248 0V95.846l9.61-5.497v40.76a6.625 6.625 0 0 0 13.25 0V82.77l4.84-2.769a6.626 6.626 0 0 0 3.336-5.752zm-149.035 24.55a6.299 6.299 0 0 0 .222-.123l35.229-20.145c.078-.041.156-.082.232-.127l35.215-20.138a5.733 5.733 0 0 0 .283-.156l14.174-8.219 31.972 18.276c.1.06.201.119.304.175l11.192 6.072-110.34 63.42-8.895-4.926-9.327-5.175-23.148-13.217-2.3-1.314zM169.94 92.938l2.51 1.434 23.078 13.19.078.042 9.646 5.342 8.56 4.75v16.485l-43.902-24.644zm81.422 27.174-3.498 2.004c-1.363-2.07-3.257-4.182-5.89-6.127a6.624 6.624 0 1 0-7.866 10.66c.936.691 1.65 1.403 2.196 2.091l-9.243 5.299v-16.433l110.614-63.574.004 13.582a25.12 25.12 0 0 0-4.267-3.96 6.626 6.626 0 0 0-7.868 10.66c.838.618 1.5 1.256 2.02 1.878l-11.302 6.464c-1.35-1.983-3.192-4-5.71-5.858a6.626 6.626 0 0 0-7.866 10.661c.784.58 1.412 1.172 1.917 1.755l-11.172 6.482c-1.351-1.997-3.202-4.027-5.739-5.897a6.626 6.626 0 0 0-7.868 10.66 11.657 11.657 0 0 1 2.09 1.96l-11.391 6.517c-1.348-1.975-3.185-3.98-5.692-5.83a6.624 6.624 0 0 0-7.867 10.66 11.668 11.668 0 0 1 1.958 1.804l-6.312 3.612a7.043 7.043 0 0 0-1.248.93"></path><path fill="#ff6cab" d="m232.648 59.402-3.996 16.355 16.79 1.254a2.975 2.487-35.981 0 0 3.434-2.494 3.067 2.564-35.981 0 0-2.11-2.908l-10.644-.792-1.225 2.495 3.298-13.498a3.048 2.548-35.981 0 0-.345-1.97 3.052 2.552-35.981 0 0-1.768-.937 2.975 2.487-35.981 0 0-3.434 2.495m28.596-20.772 16.79 1.253-3.996 16.354a2.975 2.487-35.981 0 1-3.433 2.495 3.067 2.564-35.981 0 1-2.114-2.906l2.536-10.365 2.752-.395-13.859-1.034a3.048 2.548-35.981 0 1-1.766-.937 3.052 2.552-35.981 0 1-.345-1.97 2.975 2.487-35.981 0 1 3.435-2.495m-7.803 6.75a3.046 2.547-35.981 0 0-2.123-.192 2.975 2.487-35.981 0 0-2.434 3.371l3.103 20.216a3.05 2.55-35.981 0 0 1.115 1.589 3.046 2.547-35.981 0 0 2.123.192 2.975 2.487-35.981 0 0 2.434-3.371l-3.104-20.216a3.05 2.55-35.981 0 0-1.114-1.588"></path></svg></svg>